HIERARCHY
ROOT Hips
{
	OFFSET 12.908308 96.361832 35.489651
	CHANNELS 6 Xposition Yposition Zposition Zrotation Yrotation Xrotation 
	JOINT Chest
	{
		OFFSET -2.360367 13.434914 -0.293118
		CHANNELS 3 Zrotation Yrotation Xrotation
		JOINT Chest2
		{
			OFFSET -13.167846 16.849434 -1.330757
			CHANNELS 3 Zrotation Yrotation Xrotation
			JOINT Chest3
			{
				OFFSET -6.469564 13.139709 -2.883144
				CHANNELS 3 Zrotation Yrotation Xrotation
				JOINT Neck
				{
					OFFSET -6.460925 15.788559 -2.755671
					CHANNELS 3 Zrotation Yrotation Xrotation
					JOINT Head
					{
						OFFSET -1.941378 9.929062 -2.733580
						CHANNELS 3 Zrotation Yrotation Xrotation
						End Site #name: Head_end_site
						{
							OFFSET -1.947742 9.908340 -2.803360
						}
					}
				}
				JOINT LeftCollar
				{
					OFFSET -0.993999 14.166473 0.356617
					CHANNELS 3 Zrotation Yrotation Xrotation
					JOINT LeftUpArm
					{
						OFFSET 15.132601 -0.442123 -8.905527
						CHANNELS 3 Zrotation Yrotation Xrotation
						JOINT LeftLowArm
						{
							OFFSET 29.649796 -16.042816 -1.801737
							CHANNELS 3 Zrotation Yrotation Xrotation
							JOINT LeftHand
							{
								OFFSET 26.659241 -2.022888 13.643311
								CHANNELS 3 Zrotation Yrotation Xrotation
								End Site #name: LeftHand_end_site
								{
									OFFSET 5.826538 -0.442139 2.981812
								}
							}
						}
					}
				}
				JOINT RightCollar
				{
					OFFSET -8.798209 11.100433 1.086517
					CHANNELS 3 Zrotation Yrotation Xrotation
					JOINT RightUpArm
					{
						OFFSET -15.153708 -5.128067 -7.250134
						CHANNELS 3 Zrotation Yrotation Xrotation
						JOINT RightLowArm
						{
							OFFSET -33.224224 5.982239 0.313267
							CHANNELS 3 Zrotation Yrotation Xrotation
							JOINT RightHand
							{
								OFFSET -28.141731 10.416306 -0.705805
								CHANNELS 3 Zrotation Yrotation Xrotation
								End Site #name: RightHand_end_site
								{
									OFFSET -6.150650 2.276611 -0.154257
								}
							}
						}
					}
				}
			}
		}
	}
	JOINT LeftUpLeg
	{
		OFFSET 9.536142 1.730743 2.546696
		CHANNELS 3 Zrotation Yrotation Xrotation
		JOINT LeftLowLeg
		{
			OFFSET -4.707624 -43.072136 19.147247
			CHANNELS 3 Zrotation Yrotation Xrotation
			JOINT LeftFoot
			{
				OFFSET -11.274678 -38.546806 -19.687347
				CHANNELS 3 Zrotation Yrotation Xrotation
				JOINT LeftToe
				{
					OFFSET 4.223534 -16.675749 16.237007
					CHANNELS 3 Zrotation Yrotation Xrotation
					End Site #name: LeftToe_end_site
					{
						OFFSET 7.207026 -2.281798 22.414528
					}
				}
			}
		}
	}
	JOINT RightUpLeg
	{
		OFFSET -9.536111 -1.730942 -2.546692
		CHANNELS 3 Zrotation Yrotation Xrotation
		JOINT RightLowLeg
		{
			OFFSET -41.016113 -22.075638 8.622925
			CHANNELS 3 Zrotation Yrotation Xrotation
			JOINT RightFoot
			{
				OFFSET 23.662182 -30.456944 -22.650740
				CHANNELS 3 Zrotation Yrotation Xrotation
				JOINT RightToe
				{
					OFFSET -14.221193 -18.573299 -3.513842
					CHANNELS 3 Zrotation Yrotation Xrotation
					End Site #name: RightToe_end_site
					{
						OFFSET -22.178030 -7.090685 4.172915
					}
				}
			}
		}
	}
}
MOTION
Frames: 12
Frame Time: 0.033333
-1.610244 107.096350 712.500000 -2.897777 0.000000 0.000000 1.931852 0.000000 0.000000 0.000000 0.000000 0.000000 0.000000 0.000000 0.000000 0.000000 0.000000 0.000000 0.000000 0.000000 -1.000000 0.000000 0.000000 0.000000 0.000000 0.000000 14.488887 0.000000 0.000000 -5.000000 0.000000 0.000000 0.000000 0.000000 0.000000 0.000000 0.000000 0.000000 -14.488887 0.000000 0.000000 -5.000000 0.000000 0.000000 0.000000 0.000000 0.000000 -24.148146 0.000000 0.000000 0.000000 0.000000 0.000000 -8.462979 0.000000 0.000000 0.000000 0.000000 0.000000 24.148146 0.000000 0.000000 -38.637033 0.000000 0.000000 8.462979 0.000000 0.000000 0.000000 
-1.460393 106.996449 714.168618 -2.598076 0.000000 0.000000 1.732051 0.000000 0.000000 0.000000 0.000000 0.000000 0.000000 0.000000 0.000000 0.000000 0.000000 0.000000 0.000000 0.000000 -1.732051 0.000000 0.000000 0.000000 0.000000 0.000000 12.990381 0.000000 0.000000 -5.000000 0.000000 0.000000 0.000000 0.000000 0.000000 0.000000 0.000000 0.000000 -12.990381 0.000000 0.000000 -5.000000 0.000000 0.000000 0.000000 0.000000 0.000000 -21.650635 0.000000 0.000000 0.000000 0.000000 0.000000 -6.795856 0.000000 0.000000 0.000000 0.000000 0.000000 21.650635 0.000000 0.000000 -34.641016 0.000000 0.000000 6.795856 0.000000 0.000000 0.000000 
-1.222015 106.837531 715.837237 -2.121320 0.000000 0.000000 1.414214 0.000000 0.000000 0.000000 0.000000 0.000000 0.000000 0.000000 0.000000 0.000000 0.000000 0.000000 0.000000 0.000000 -2.000000 0.000000 0.000000 0.000000 0.000000 0.000000 10.606602 0.000000 0.000000 -5.000000 0.000000 0.000000 0.000000 0.000000 0.000000 0.000000 0.000000 0.000000 -10.606602 0.000000 0.000000 -5.000000 0.000000 0.000000 0.000000 0.000000 0.000000 -17.677670 0.000000 0.000000 0.000000 0.000000 0.000000 -4.665606 0.000000 0.000000 0.000000 0.000000 0.000000 17.677670 0.000000 0.000000 -28.284271 0.000000 0.000000 4.665606 0.000000 0.000000 0.000000 
-0.911355 106.630424 717.505855 -1.500000 0.000000 0.000000 1.000000 0.000000 0.000000 0.000000 0.000000 0.000000 0.000000 0.000000 0.000000 0.000000 0.000000 0.000000 0.000000 0.000000 -1.732051 0.000000 0.000000 0.000000 0.000000 0.000000 7.500000 0.000000 0.000000 -5.000000 0.000000 0.000000 0.000000 0.000000 0.000000 0.000000 0.000000 0.000000 -7.500000 0.000000 0.000000 -5.000000 0.000000 0.000000 0.000000 0.000000 0.000000 -12.500000 0.000000 0.000000 0.000000 0.000000 0.000000 -2.217402 0.000000 0.000000 0.000000 0.000000 0.000000 12.500000 0.000000 0.000000 -20.000000 0.000000 0.000000 2.217402 0.000000 0.000000 0.000000 
-0.549584 106.389243 719.174473 -0.776457 0.000000 0.000000 0.517638 0.000000 0.000000 0.000000 0.000000 0.000000 0.000000 0.000000 0.000000 0.000000 0.000000 0.000000 0.000000 0.000000 -1.000000 0.000000 0.000000 0.000000 0.000000 0.000000 3.882286 0.000000 0.000000 -5.000000 0.000000 0.000000 0.000000 0.000000 0.000000 0.000000 0.000000 0.000000 -3.882286 0.000000 0.000000 -5.000000 0.000000 0.000000 0.000000 0.000000 0.000000 -6.470476 0.000000 0.000000 0.000000 0.000000 0.000000 0.381913 0.000000 0.000000 0.000000 0.000000 0.000000 6.470476 0.000000 0.000000 -10.352762 0.000000 0.000000 -0.381913 0.000000 0.000000 0.000000 
-0.161355 106.130424 720.843091 -0.000000 0.000000 0.000000 0.000000 0.000000 0.000000 0.000000 0.000000 0.000000 0.000000 0.000000 0.000000 0.000000 0.000000 0.000000 0.000000 0.000000 -0.000000 0.000000 0.000000 0.000000 0.000000 0.000000 0.000000 0.000000 0.000000 -5.000000 0.000000 0.000000 0.000000 0.000000 0.000000 0.000000 0.000000 0.000000 -0.000000 0.000000 0.000000 -5.000000 0.000000 0.000000 0.000000 0.000000 0.000000 -0.000000 0.000000 0.000000 0.000000 0.000000 0.000000 2.955202 0.000000 0.000000 0.000000 0.000000 0.000000 0.000000 0.000000 0.000000 -0.000000 0.000000 0.000000 -2.955202 0.000000 0.000000 0.000000 
0.226874 106.389243 722.511710 0.776457 0.000000 0.000000 -0.517638 0.000000 0.000000 0.000000 0.000000 0.000000 0.000000 0.000000 0.000000 0.000000 0.000000 0.000000 0.000000 0.000000 1.000000 0.000000 0.000000 0.000000 0.000000 0.000000 -3.882286 0.000000 0.000000 -5.000000 0.000000 0.000000 0.000000 0.000000 0.000000 0.000000 0.000000 0.000000 3.882286 0.000000 0.000000 -5.000000 0.000000 0.000000 0.000000 0.000000 0.000000 6.470476 0.000000 0.000000 -10.352762 0.000000 0.000000 5.327099 0.000000 0.000000 0.000000 0.000000 0.000000 -6.470476 0.000000 0.000000 0.000000 0.000000 0.000000 -5.327099 0.000000 0.000000 0.000000 
0.588645 106.630424 724.180328 1.500000 0.000000 0.000000 -1.000000 0.000000 0.000000 0.000000 0.000000 0.000000 0.000000 0.000000 0.000000 0.000000 0.000000 0.000000 0.000000 0.000000 1.732051 0.000000 0.000000 0.000000 0.000000 0.000000 -7.500000 0.000000 0.000000 -5.000000 0.000000 0.000000 0.000000 0.000000 0.000000 0.000000 0.000000 0.000000 7.500000 0.000000 0.000000 -5.000000 0.000000 0.000000 0.000000 0.000000 0.000000 12.500000 0.000000 0.000000 -20.000000 0.000000 0.000000 7.335963 0.000000 0.000000 0.000000 0.000000 0.000000 -12.500000 0.000000 0.000000 0.000000 0.000000 0.000000 -7.335963 0.000000 0.000000 0.000000 
0.899305 106.837531 725.848946 2.121320 0.000000 0.000000 -1.414214 0.000000 0.000000 0.000000 0.000000 0.000000 0.000000 0.000000 0.000000 0.000000 0.000000 0.000000 0.000000 0.000000 2.000000 0.000000 0.000000 0.000000 0.000000 0.000000 -10.606602 0.000000 0.000000 -5.000000 0.000000 0.000000 0.000000 0.000000 0.000000 0.000000 0.000000 0.000000 10.606602 0.000000 0.000000 -5.000000 0.000000 0.000000 0.000000 0.000000 0.000000 17.677670 0.000000 0.000000 -28.284271 0.000000 0.000000 8.844893 0.000000 0.000000 0.000000 0.000000 0.000000 -17.677670 0.000000 0.000000 0.000000 0.000000 0.000000 -8.844893 0.000000 0.000000 0.000000 
1.137683 106.996449 727.517564 2.598076 0.000000 0.000000 -1.732051 0.000000 0.000000 0.000000 0.000000 0.000000 0.000000 0.000000 0.000000 0.000000 0.000000 0.000000 0.000000 0.000000 1.732051 0.000000 0.000000 0.000000 0.000000 0.000000 -12.990381 0.000000 0.000000 -5.000000 0.000000 0.000000 0.000000 0.000000 0.000000 0.000000 0.000000 0.000000 12.990381 0.000000 0.000000 -5.000000 0.000000 0.000000 0.000000 0.000000 0.000000 21.650635 0.000000 0.000000 -34.641016 0.000000 0.000000 9.751058 0.000000 0.000000 0.000000 0.000000 0.000000 -21.650635 0.000000 0.000000 0.000000 0.000000 0.000000 -9.751058 0.000000 0.000000 0.000000 
1.287534 107.096350 729.186183 2.897777 0.000000 0.000000 -1.931852 0.000000 0.000000 0.000000 0.000000 0.000000 0.000000 0.000000 0.000000 0.000000 0.000000 0.000000 0.000000 0.000000 1.000000 0.000000 0.000000 0.000000 0.000000 0.000000 -14.488887 0.000000 0.000000 -5.000000 0.000000 0.000000 0.000000 0.000000 0.000000 0.000000 0.000000 0.000000 14.488887 0.000000 0.000000 -5.000000 0.000000 0.000000 0.000000 0.000000 0.000000 24.148146 0.000000 0.000000 -38.637033 0.000000 0.000000 9.992704 0.000000 0.000000 0.000000 0.000000 0.000000 -24.148146 0.000000 0.000000 0.000000 0.000000 0.000000 -9.992704 0.000000 0.000000 0.000000 
1.338645 107.130424 730.854801 3.000000 0.000000 0.000000 -2.000000 0.000000 0.000000 0.000000 0.000000 0.000000 0.000000 0.000000 0.000000 0.000000 0.000000 0.000000 0.000000 0.000000 0.000000 0.000000 0.000000 0.000000 0.000000 0.000000 -15.000000 0.000000 0.000000 -5.000000 0.000000 0.000000 0.000000 0.000000 0.000000 0.000000 0.000000 0.000000 15.000000 0.000000 0.000000 -5.000000 0.000000 0.000000 0.000000 0.000000 0.000000 25.000000 0.000000 0.000000 -40.000000 0.000000 0.000000 9.553365 0.000000 0.000000 0.000000 0.000000 0.000000 -25.000000 0.000000 0.000000 0.000000 0.000000 0.000000 -9.553365 0.000000 0.000000 0.000000 
